<svg width="22" height="20" viewBox="0 0 22 20" fill="none" xmlns="http://www.w3.org/2000/svg">
<path fill-rule="evenodd" clip-rule="evenodd" d="M22 0H0V20H22V0ZM8.01599 7.44886C8.37961 7.6875 8.58701 8.02273 8.63815 8.45454H9.66086C9.64667 8.01421 9.51028 7.62074 9.25177 7.27415C8.99609 6.92756 8.64951 6.65483 8.21201 6.45596C7.77451 6.25426 7.27451 6.15341 6.71201 6.15341C6.15518 6.15341 5.65091 6.25568 5.19922 6.46023C4.75037 6.66193 4.3924 6.94602 4.12537 7.3125C3.86115 7.67613 3.72903 8.10227 3.72903 8.59091C3.72903 9.17898 3.92792 9.65483 4.32565 10.0185C4.72336 10.3821 5.26315 10.6619 5.94495 10.858L7.01883 11.1648C7.32565 11.25 7.61115 11.3494 7.87537 11.4631C8.13956 11.5767 8.35263 11.7244 8.51456 11.9062C8.67648 12.0881 8.75745 12.3239 8.75745 12.6136C8.75745 12.9318 8.6637 13.2102 8.4762 13.4489C8.2887 13.6847 8.03445 13.8693 7.71341 14.0028C7.3924 14.1335 7.03018 14.1989 6.62677 14.1989C6.28018 14.1989 5.95633 14.1477 5.65518 14.0455C5.3569 13.9403 5.10974 13.7812 4.9137 13.5682C4.72052 13.3523 4.60974 13.0795 4.58133 12.75H3.49042C3.52451 13.2273 3.67081 13.6463 3.92932 14.0071C4.1907 14.3679 4.54865 14.6491 5.0032 14.8509C5.46057 15.0526 6.00177 15.1534 6.62677 15.1534C7.29724 15.1534 7.86682 15.0412 8.33557 14.8168C8.80716 14.5923 9.16513 14.2898 9.40945 13.9091C9.65662 13.5284 9.78018 13.1023 9.78018 12.6307C9.78018 12.2216 9.69638 11.8764 9.52878 11.5952C9.36115 11.3139 9.14807 11.0838 8.88956 10.9048C8.63388 10.723 8.36542 10.5795 8.08417 10.4744C7.80576 10.3693 7.55292 10.2869 7.32565 10.2273L6.43927 9.98864C6.27734 9.94602 6.09979 9.89062 5.90662 9.82244C5.71341 9.75142 5.52878 9.66193 5.35263 9.55398C5.17648 9.44318 5.03162 9.3054 4.91797 9.14062C4.80716 8.97301 4.75177 8.77273 4.75177 8.53977C4.75177 8.26136 4.83133 8.01279 4.99042 7.79404C5.15234 7.57529 5.37677 7.40341 5.6637 7.27841C5.95349 7.15341 6.29153 7.09091 6.67792 7.09091C7.20633 7.09091 7.65234 7.21023 8.01599 7.44886ZM17.4837 9H18.5405C18.4609 8.55113 18.316 8.15199 18.1058 7.80256C17.8956 7.45029 17.6342 7.15199 17.3217 6.90767C17.0092 6.66051 16.6584 6.47301 16.2692 6.34517C15.8828 6.21733 15.4695 6.15341 15.0291 6.15341C14.2848 6.15341 13.6229 6.33523 13.0433 6.69886C12.4638 7.0625 12.0078 7.57954 11.6754 8.25C11.343 8.92046 11.1768 9.71591 11.1768 10.6364C11.1768 11.5568 11.343 12.3523 11.6754 13.0227C12.0078 13.6932 12.4638 14.2102 13.0433 14.5739C13.6229 14.9375 14.2848 15.1193 15.0291 15.1193C15.4695 15.1193 15.8828 15.0554 16.2692 14.9276C16.6584 14.7997 17.0092 14.6136 17.3217 14.3693C17.6342 14.1222 17.8956 13.8224 18.1058 13.4702C18.316 13.1179 18.4609 12.7188 18.5405 12.2727H17.4837C17.4212 12.5739 17.3118 12.8409 17.1555 13.0739C17.0021 13.304 16.8146 13.4986 16.593 13.6577C16.3743 13.8139 16.1314 13.9318 15.8643 14.0114C15.5973 14.0909 15.3189 14.1307 15.0291 14.1307C14.5007 14.1307 14.022 13.9972 13.593 13.7301C13.1669 13.4631 12.8274 13.0696 12.5746 12.5497C12.3246 12.0298 12.1996 11.392 12.1996 10.6364C12.1996 9.88068 12.3246 9.2429 12.5746 8.72301C12.8274 8.20312 13.1669 7.80966 13.593 7.54261C14.022 7.27557 14.5007 7.14204 15.0291 7.14204C15.3189 7.14204 15.5973 7.18182 15.8643 7.26136C16.1314 7.34091 16.3743 7.46023 16.593 7.61932C16.8146 7.77557 17.0021 7.96875 17.1555 8.19886C17.3118 8.42898 17.4212 8.69602 17.4837 9Z" fill="#2979AF"/>
</svg>
